<?xml version="1.0" encoding="UTF-8"?>
<svg xmlns="http://www.w3.org/2000/svg" width="101" height="37.942" viewBox="0 0 101 37.942">
  <path d="M64.586,198.876V189.31a1.039,1.039,0,0,0-.367-.468,2.067,2.067,0,0,0-.714-.272,2.242,2.242,0,0,0-.239-.044,1.44,1.44,0,0,0-.209-.015h-.02c-.312-.044-.468-.132-.468-.261a.174.174,0,0,1,.116-.156.676.676,0,0,1,.3-.059q.184,0,.777.04c.4.026.731.037,1,.037.329,0,.593,0,.788-.018a2.431,2.431,0,0,0,.439-.059h.18a.659.659,0,0,1,.384.092,1.067,1.067,0,0,1,.279.439l4.146,9.781,4.263-9.926a.591.591,0,0,1,.22-.292.609.609,0,0,1,.34-.088.888.888,0,0,1,.176.024l.145.035h.575c.305,0,.69,0,1.157-.029s.788-.029.964-.029a.962.962,0,0,1,.373.048.167.167,0,0,1,.1.165c0,.1-.121.173-.36.22l-.088.02a2.543,2.543,0,0,0-.58.092,1.5,1.5,0,0,0-.439.22,1.318,1.318,0,0,0-.457.659,3.338,3.338,0,0,0-.156,1.1v8.661a3.189,3.189,0,0,0,.136,1.1,1.006,1.006,0,0,0,.488.514,1.4,1.4,0,0,0,.312.112,2.393,2.393,0,0,0,.4.064l.1.02c.266.053.4.134.4.244a.18.18,0,0,1-.088.156.439.439,0,0,1-.253.057h-.2q-1.12-.09-2.266-.088c-.819,0-1.623.029-2.416.088h-.233a.5.5,0,0,1-.268-.057.18.18,0,0,1-.092-.156c0-.13.169-.22.488-.253h.048a2.6,2.6,0,0,0,.439-.064,1.486,1.486,0,0,0,.336-.121,1.01,1.01,0,0,0,.505-.5,2.923,2.923,0,0,0,.147-1.1V189.98l-4.735,11.066a.923.923,0,0,1-.141.244c-.055.064-.1.1-.132.1a.189.189,0,0,1-.127-.068.626.626,0,0,1-.116-.176l-4.739-11.259v9a3.432,3.432,0,0,0,.18,1.329,1.265,1.265,0,0,0,.628.6,1.229,1.229,0,0,0,.336.141A1.317,1.317,0,0,0,66.7,201a.323.323,0,0,1,.079.02c.22.053.321.134.321.244a.178.178,0,0,1-.112.156.722.722,0,0,1-.327.057H66.22c-.026,0-.176-.013-.452-.04s-.518-.04-.725-.04a3.671,3.671,0,0,0-.472.024c-.2.024-.316.029-.356.035-.22.02-.382.031-.485.033s-.2,0-.3,0a2.1,2.1,0,0,1-.56-.053c-.112-.035-.169-.1-.169-.18a.171.171,0,0,1,.092-.152,1.239,1.239,0,0,1,.384-.092h.059a2.341,2.341,0,0,0,.681-.22,1.17,1.17,0,0,0,.52-.6,3.953,3.953,0,0,0,.152-1.318" transform="translate(-62.57 -163.856)" fill="#fff"/>
  <path d="M228.173,199.008a3.412,3.412,0,0,0,.184,1.318,1.427,1.427,0,0,0,.659.659,1.791,1.791,0,0,0,.3.1,3.255,3.255,0,0,0,.351.057h.029q.369.068.369.244a.171.171,0,0,1-.105.16.731.731,0,0,1-.312.053,2.672,2.672,0,0,1-.3-.018q-.826-.059-1.537-.059c-.22,0-.514,0-.878.029s-.617.031-.76.031a.832.832,0,0,1-.349-.059c-.086-.04-.127-.09-.127-.156a.18.18,0,0,1,.123-.165.821.821,0,0,1,.354-.059l.156-.04a2.254,2.254,0,0,0,.584-.2,1.131,1.131,0,0,0,.525-.6,4.043,4.043,0,0,0,.147-1.318v-9.307a2.453,2.453,0,0,0-.54-.624,2.119,2.119,0,0,0-.7-.349c-.079-.02-.2-.044-.351-.068h-.1c-.279-.04-.419-.116-.419-.235q0-.094.132-.145a1.274,1.274,0,0,1,.413-.048c.059,0,.248.013.571.04s.615.037.878.037h.3c.134,0,.235-.011.305-.011l.235-.033a2.578,2.578,0,0,1,.3-.024.749.749,0,0,1,.365.092.988.988,0,0,1,.316.288l8.163,10.19V190.6a2.476,2.476,0,0,0-.389-1.568,1.554,1.554,0,0,0-1.293-.455.219.219,0,0,1-.145-.064.187.187,0,0,1-.068-.141.163.163,0,0,1,.088-.143.464.464,0,0,1,.242-.053c.125,0,.419.015.878.048s.878.048,1.206.048h.569c.184,0,.382-.018.591-.029a.452.452,0,0,0,.077-.011c.182-.02.307-.029.38-.029a.5.5,0,0,1,.253.053.158.158,0,0,1,.088.141c0,.092-.143.169-.428.235h-.059a3.2,3.2,0,0,0-.709.2,1.1,1.1,0,0,0-.525.564,3.6,3.6,0,0,0-.147,1.236v10.675a1.06,1.06,0,0,1-.072.481.266.266,0,0,1-.248.123.518.518,0,0,1-.3-.1,2.039,2.039,0,0,1-.367-.38l-8.894-11.1Z" transform="translate(-189.696 -163.968)" fill="#fff"/>
  <path d="M391.634,198.734a2.374,2.374,0,0,0,.6,1.911,4.413,4.413,0,0,0,2.512.483,7.079,7.079,0,0,0,2.242-.288,2.538,2.538,0,0,0,1.28-.909,2.982,2.982,0,0,0,.439-1.061c.105-.439.22-.672.354-.672a.136.136,0,0,1,.123.053.809.809,0,0,1,.033.307l-.037,2.666a.659.659,0,0,1-.083.4.452.452,0,0,1-.336.092c-.072,0-.279,0-.624-.02q-2.8-.136-5.6-.136-2.266,0-4.271.108h-.292a.527.527,0,0,1-.264-.053.2.2,0,0,1-.1-.16c0-.13.169-.22.485-.253a.29.29,0,0,1,.059,0,2.592,2.592,0,0,0,.424-.064,1.661,1.661,0,0,0,.325-.112.982.982,0,0,0,.5-.49,3.075,3.075,0,0,0,.143-1.124v-8.975a2.95,2.95,0,0,0-.143-1.1.947.947,0,0,0-.49-.488,2.042,2.042,0,0,0-.336-.1,3.58,3.58,0,0,0-.424-.059.256.256,0,0,1-.059,0c-.316-.04-.479-.11-.485-.22a.16.16,0,0,1,.1-.141.562.562,0,0,1,.264-.053h.332q1.186.07,2.286.068,1.186,0,2.365-.068h.244a.589.589,0,0,1,.257.044.163.163,0,0,1,.1.13c0,.1-.134.173-.4.22l-.079.02a2.049,2.049,0,0,0-.3.024c-.1.018-.22.042-.36.072a.92.92,0,0,0-.617.468,2.736,2.736,0,0,0-.18,1.168Z" transform="translate(-316.237 -164.053)" fill="#fff"/>
  <path d="M188.337,89.408a.584.584,0,1,1,.584.584.584.584,0,0,1-.584-.584m-6.072-.529a.584.584,0,1,1,.584.584.584.584,0,0,1-.584-.584m2.137-4.891a.584.584,0,1,1,.584.584.584.584,0,0,1-.584-.584M218.41,77.94c-3.514,0-9.783,4.208-13.429,6.9H188.84l-2.488-.758v-.092a1.375,1.375,0,1,0-1.375,1.375,1.221,1.221,0,0,0,1.023-.52l2.657.808h15.236l-1.518,1.171L187.433,86.8,183.8,87.91a1.171,1.171,0,0,0-.96-.4,1.377,1.377,0,1,0,1.375,1.377,1.221,1.221,0,0,0-.018-.18l3.382-1.05h13.835c-.45.351-1.039.8-1.783,1.353l-9.41.013a1.368,1.368,0,0,0-.722-.843l-.037-.02a1.355,1.355,0,0,0-.551-.116,1.375,1.375,0,1,0,0,2.749,1.239,1.239,0,0,0,1.274-.878l8.255-.037c-.152.11-.343.261-.336.259-3.6,2.545-8.712,5.762-11.567,5.762a8.54,8.54,0,1,1,0-17.08c2.723,0,7.451,2.893,11.013,5.375h1.537c-3.729-2.666-9.316-6.25-12.55-6.25a9.417,9.417,0,1,0,0,18.833c4.636,0,14.055-7.313,15.943-8.819l.7-.63c2.135-1.68,11.062-8.508,15.243-8.508a8.54,8.54,0,1,1,0,17.08c-2.132,0-5.49-1.773-8.565-3.734h0a6.175,6.175,0,0,1-1.86-1.8,1.906,1.906,0,0,1-.149-.841,1.954,1.954,0,0,1,2.014-2.029c.123,0,.646-.015.646-.015s-.068-.367-.108-.567a5.53,5.53,0,0,1-.026-.788,3.307,3.307,0,0,1,1.871-2.921,3.514,3.514,0,0,1,1.689-.439,3.4,3.4,0,0,1,3.092,1.687,1.649,1.649,0,0,1,.092.439s.349-.11.507-.138A3.075,3.075,0,0,1,219.4,85a2.645,2.645,0,0,1,1.37,2.064,2.2,2.2,0,0,1-.031.474h.553a2.141,2.141,0,0,1,2.075,2.06c0,1.12-.329,1.794-3.981,2.075h-8.74l1.7.83h5.813a14.917,14.917,0,0,0,4.484-.494,2.062,2.062,0,0,0,1.348-1.225h0c.059-.171.147-.336.191-.518a3.014,3.014,0,0,0-1.337-3.162,2.888,2.888,0,0,0-1.3-.415,3.386,3.386,0,0,0-3.88-2.809,4.059,4.059,0,0,0-3.074-1.95c-.72-.031-.966-.042-1.069-.031h0a4.359,4.359,0,0,0-1.709.525,4.148,4.148,0,0,0-.4.257l-.387.321a4.486,4.486,0,0,0-.815.946,4.933,4.933,0,0,0-.488,1.072,4.432,4.432,0,0,0-.239,1.111,4.306,4.306,0,0,0,.04.584,2.908,2.908,0,0,0-2.613,2.982,2.635,2.635,0,0,0,.116.674s.2,1.012,2.317,2.5h0c3.191,2.038,6.729,3.907,9.065,3.907a9.417,9.417,0,0,0,0-18.833Z" transform="translate(-151.964 -77.94)" fill="#fff"/>
  <path d="M163.659,199.9a.986.986,0,0,0-.362-.1,2.419,2.419,0,0,1-.36-.057,1.687,1.687,0,0,1-.292-.1,1.579,1.579,0,0,1-.628-.507,4.765,4.765,0,0,1-.569-1.1l-4.41-11.105a1.065,1.065,0,0,0-.184-.325.261.261,0,0,0-.193-.092.253.253,0,0,0-.191.088.911.911,0,0,0-.16.292l-4.454,10.611a8.784,8.784,0,0,1-.7,1.41,1.739,1.739,0,0,1-.648.624,2.676,2.676,0,0,1-.345.149,2.649,2.649,0,0,1-.439.112.936.936,0,0,0-.327.094.158.158,0,0,0-.081.141.178.178,0,0,0,.125.169.964.964,0,0,0,.371.055c.077,0,.305-.013.681-.04s.707-.04.993-.04c.376,0,.771.02,1.181.059s.635.057.659.057a.659.659,0,0,0,.283-.048.143.143,0,0,0,.1-.125.22.22,0,0,0-.083-.18.821.821,0,0,0-.336-.1.744.744,0,0,1-.165-.024,2.991,2.991,0,0,1-.292-.092,1.006,1.006,0,0,1-.5-.38,1.14,1.14,0,0,1-.156-.621,2.608,2.608,0,0,1,.064-.523,3.7,3.7,0,0,1,.189-.608l.878-2.2h5.051l.918,2.424a5.4,5.4,0,0,1,.22.709,2.709,2.709,0,0,1,.079.564.534.534,0,0,1-.259.477,1.917,1.917,0,0,1-.832.22,1.937,1.937,0,0,0-.466.132q-.119.061-.119.152a.2.2,0,0,0,.143.16,1.081,1.081,0,0,0,.384.053c.272,0,.676-.018,1.21-.057s.933-.059,1.192-.059c.4,0,.878.013,1.452.04s.925.04,1.078.04a.628.628,0,0,0,.292-.055.156.156,0,0,0,.108-.141A.185.185,0,0,0,163.659,199.9Zm-10.13-5.082,2.394-5.76,2.229,5.76Z" transform="translate(-130.261 -162.675)" fill="#fff"/>
  <path d="M318.591,191.3a6.149,6.149,0,0,0-1.3-2.1,7,7,0,0,0-2.438-1.682,7.861,7.861,0,0,0-5.892-.044,7.393,7.393,0,0,0-2.433,1.6,7,7,0,0,0-1.537,2.253,6.726,6.726,0,0,0-.52,2.635,6.95,6.95,0,0,0,.525,2.774,6.765,6.765,0,0,0,1.625,2.249,6.97,6.97,0,0,0,2.337,1.425,8.074,8.074,0,0,0,2.831.492,7.635,7.635,0,0,0,2.8-.536,7.181,7.181,0,0,0,2.361-1.46,6.4,6.4,0,0,0,1.537-2.233,7.089,7.089,0,0,0,.545-2.747A7.554,7.554,0,0,0,318.591,191.3Zm-3.318,7.392a4.3,4.3,0,0,1-7-.029,7.891,7.891,0,0,1-1.337-4.8,7.68,7.68,0,0,1,1.346-4.73,4.21,4.21,0,0,1,3.514-1.79,4.14,4.14,0,0,1,3.514,1.757,9.391,9.391,0,0,1-.033,9.59Z" transform="translate(-251.344 -162.995)" fill="#fff"/>
  <path d="M470.41,191.3a6.149,6.149,0,0,0-1.3-2.1,7.039,7.039,0,0,0-2.438-1.682,7.613,7.613,0,0,0-2.973-.6,7.708,7.708,0,0,0-2.91.551,7.416,7.416,0,0,0-2.433,1.6,7,7,0,0,0-1.537,2.253,6.726,6.726,0,0,0-.52,2.635,6.911,6.911,0,0,0,.527,2.774,6.733,6.733,0,0,0,1.625,2.249,6.962,6.962,0,0,0,2.334,1.425,8.086,8.086,0,0,0,2.833.492,7.644,7.644,0,0,0,2.8-.536,7.206,7.206,0,0,0,2.361-1.46,6.369,6.369,0,0,0,1.511-2.238,7.049,7.049,0,0,0,.545-2.747A7.552,7.552,0,0,0,470.41,191.3Zm-3.318,7.392a4.3,4.3,0,0,1-7-.029,7.91,7.91,0,0,1-1.337-4.8,7.671,7.671,0,0,1,1.348-4.73,4.205,4.205,0,0,1,3.514-1.79,4.146,4.146,0,0,1,3.514,1.757,9.4,9.4,0,0,1-.035,9.59Z" transform="translate(-369.831 -162.995)" fill="#fff"/>
</svg>