<?xml version="1.0" encoding="UTF-8"?>
<svg xmlns="http://www.w3.org/2000/svg" width="491.75" height="131.78" xmlns:xlink="http://www.w3.org/1999/xlink" viewBox="0 0 491.75 131.78">
  <defs>
    <style>
      .cls-1 {
        fill: url(#linear-gradient-2);
      }

      .cls-2 {
        fill: #1bd0d4;
      }

      .cls-3 {
        fill: url(#New_Gradient_Swatch_copy_2-4);
      }

      .cls-4 {
        fill: url(#New_Gradient_Swatch_copy_2);
      }

      .cls-5 {
        fill: #6a17c9;
      }

      .cls-6 {
        fill: url(#New_Gradient_Swatch_copy_2-2);
      }

      .cls-7 {
        fill: url(#linear-gradient-6);
      }

      .cls-8 {
        opacity: .65;
      }

      .cls-9 {
        fill: #1380ab;
      }

      .cls-10 {
        fill: url(#New_Gradient_Swatch_copy_2-5);
      }

      .cls-11 {
        fill: url(#linear-gradient-5);
      }

      .cls-12 {
        fill: url(#New_Gradient_Swatch_copy_2-3);
      }

      .cls-13 {
        fill: url(#linear-gradient-7);
      }

      .cls-14 {
        fill: url(#New_Gradient_Swatch_copy);
      }

      .cls-15 {
        fill: #185e7a;
      }

      .cls-16 {
        fill: #890bf3;
      }

      .cls-17 {
        fill: url(#linear-gradient-3);
      }

      .cls-18 {
        fill: url(#linear-gradient);
      }

      .cls-19 {
        fill: #f141dc;
      }

      .cls-20 {
        fill: url(#linear-gradient-4);
      }

      .cls-21 {
        fill: url(#linear-gradient-8);
      }
    </style>
    <linearGradient id="linear-gradient" x1="181.43" y1="39.24" x2="181.43" y2="78.82" gradientUnits="userSpaceOnUse">
      <stop offset="0" stop-color="#19ed97"/>
      <stop offset="1" stop-color="#1380ab"/>
    </linearGradient>
    <linearGradient id="linear-gradient-2" x1="234.72" y1="39.24" x2="234.72" y2="78.82" xlink:href="#linear-gradient"/>
    <linearGradient id="linear-gradient-3" x1="289.94" y1="38.86" x2="289.94" y2="74.87" xlink:href="#linear-gradient"/>
    <linearGradient id="linear-gradient-4" x1="345.64" y1="39.24" x2="345.64" y2="78.82" xlink:href="#linear-gradient"/>
    <linearGradient id="linear-gradient-5" x1="399.48" y1="39.24" x2="399.48" y2="78.82" xlink:href="#linear-gradient"/>
    <linearGradient id="linear-gradient-6" x1="434.93" y1="39.24" x2="434.93" y2="78.82" xlink:href="#linear-gradient"/>
    <linearGradient id="linear-gradient-7" x1="470.57" y1="39.24" x2="470.57" y2="78.82" xlink:href="#linear-gradient"/>
    <linearGradient id="New_Gradient_Swatch_copy" data-name="New Gradient Swatch copy" x1="77.68" y1="21.27" x2="120.57" y2="90.65" gradientUnits="userSpaceOnUse">
      <stop offset="0" stop-color="#1bd0d4"/>
      <stop offset="1" stop-color="#890bf3"/>
    </linearGradient>
    <linearGradient id="New_Gradient_Swatch_copy_2" data-name="New Gradient Swatch copy 2" x1="67.66" y1="77.88" x2="89.11" y2="123.48" gradientUnits="userSpaceOnUse">
      <stop offset="0" stop-color="#19ed97"/>
      <stop offset="1" stop-color="#1380ab"/>
    </linearGradient>
    <linearGradient id="New_Gradient_Swatch_copy_2-2" data-name="New Gradient Swatch copy 2" x1="56.44" y1="83.15" x2="77.89" y2="128.76" xlink:href="#New_Gradient_Swatch_copy_2"/>
    <linearGradient id="New_Gradient_Swatch_copy_2-3" data-name="New Gradient Swatch copy 2" x1="42.54" y1="89.69" x2="63.99" y2="135.3" xlink:href="#New_Gradient_Swatch_copy_2"/>
    <linearGradient id="New_Gradient_Swatch_copy_2-4" data-name="New Gradient Swatch copy 2" x1="22.33" y1="99.2" x2="43.78" y2="144.8" xlink:href="#New_Gradient_Swatch_copy_2"/>
    <linearGradient id="New_Gradient_Swatch_copy_2-5" data-name="New Gradient Swatch copy 2" x1="55.7" y1="83.5" x2="77.15" y2="129.11" xlink:href="#New_Gradient_Swatch_copy_2"/>
    <linearGradient id="linear-gradient-8" x1="14.69" y1="41.09" x2="50.12" y2="56.84" gradientUnits="userSpaceOnUse">
      <stop offset="0" stop-color="#f9e47d"/>
      <stop offset="1" stop-color="#f141dc"/>
    </linearGradient>
  </defs>
  <g id="Layer_2" data-name="Layer 2">
    <g>
      <path class="cls-18" d="m160.64,81.69v-26.49c0-4.16.94-7.75,2.81-10.75,1.87-3,4.38-5.32,7.54-6.96,3.15-1.63,6.63-2.45,10.44-2.45s7.36.82,10.48,2.45c3.12,1.64,5.62,3.96,7.49,6.96,1.87,3,2.81,6.59,2.81,10.75v26.49h-6.24v-26.22c0-3.15-.68-5.84-2.05-8.07-1.37-2.23-3.17-3.94-5.4-5.13-2.23-1.19-4.62-1.78-7.18-1.78s-4.85.58-7.05,1.74c-2.2,1.16-3.98,2.85-5.35,5.08-1.37,2.23-2.05,4.95-2.05,8.16v26.22h-6.24Z"/>
      <path class="cls-1" d="m239.05,81.69c-4.88,0-9.23-.91-13.07-2.72-3.84-1.81-6.87-4.41-9.1-7.8-2.23-3.39-3.34-7.46-3.34-12.22,0-4.4.89-8.4,2.68-12,1.78-3.6,4.3-6.47,7.54-8.61,3.24-2.14,7.03-3.21,11.37-3.21s8.24.98,11.33,2.94c3.09,1.96,5.44,4.61,7.05,7.94,1.61,3.33,2.41,7.08,2.41,11.24,0,.6-.03,1.25-.09,1.96-.06.71-.15,1.34-.27,1.87h-35.41c.18,3.33,1.13,6.13,2.85,8.38,1.72,2.26,3.97,3.96,6.73,5.08,2.76,1.13,5.75,1.69,8.96,1.69h11.51v5.44h-11.15Zm-18.91-25.07h29.44c0-1.19-.12-2.51-.36-3.97-.24-1.46-.67-2.9-1.29-4.33-.62-1.43-1.49-2.73-2.59-3.92-1.1-1.19-2.5-2.16-4.19-2.9-1.69-.74-3.76-1.12-6.2-1.12-2.26,0-4.31.48-6.15,1.43-1.84.95-3.39,2.22-4.64,3.79-1.25,1.58-2.22,3.32-2.9,5.22-.68,1.9-1.06,3.84-1.12,5.8Z"/>
      <path class="cls-17" d="m289.89,35.04c3.21,0,6.21.55,9.01,1.65,2.79,1.1,5.25,2.69,7.36,4.77,2.11,2.08,3.76,4.62,4.95,7.63,1.19,3,1.78,6.41,1.78,10.21,0,4.82-1.01,8.98-3.03,12.49-2.02,3.51-4.71,6.22-8.07,8.12-3.36,1.9-7.09,2.85-11.2,2.85-2.5,0-4.88-.45-7.14-1.34-2.26-.89-4.28-2.13-6.07-3.7-1.78-1.58-3.18-3.37-4.19-5.4h-.18v21.91l-3,.98c-1.6.52-3.24-.67-3.24-2.36v-34c0-5.11,1.04-9.44,3.12-12.98,2.08-3.54,4.88-6.23,8.38-8.07,3.51-1.84,7.34-2.77,11.51-2.77Zm-.09,5.44c-2.97,0-5.72.71-8.25,2.14-2.53,1.43-4.55,3.51-6.07,6.24-1.52,2.74-2.27,6.07-2.27,9.99s.77,7.18,2.32,9.95c1.55,2.77,3.6,4.88,6.15,6.33,2.56,1.46,5.32,2.18,8.3,2.18s5.72-.74,8.25-2.23c2.53-1.49,4.56-3.61,6.11-6.38,1.55-2.76,2.32-6.02,2.32-9.77s-.77-7.18-2.32-9.95c-1.55-2.77-3.6-4.88-6.15-6.33-2.56-1.46-5.35-2.19-8.38-2.19Z"/>
      <path class="cls-20" d="m324.33,81.69V16.57h6.24v26.85c1.78-2.79,4.12-4.89,7-6.29,2.88-1.4,5.93-2.1,9.14-2.1,3.81,0,7.24.82,10.3,2.45,3.06,1.64,5.49,3.96,7.27,6.96,1.78,3,2.68,6.59,2.68,10.75l-.09,26.49h-6.15v-26.22c0-3.15-.73-5.84-2.19-8.07-1.46-2.23-3.33-3.94-5.62-5.13-2.29-1.19-4.74-1.78-7.36-1.78s-4.91.58-7.22,1.74-4.19,2.84-5.62,5.04c-1.43,2.2-2.14,4.88-2.14,8.03v26.4h-6.24Z"/>
      <path class="cls-11" d="m403.8,81.69c-4.88,0-9.23-.91-13.07-2.72-3.84-1.81-6.87-4.41-9.1-7.8-2.23-3.39-3.34-7.46-3.34-12.22,0-4.4.89-8.4,2.68-12,1.78-3.6,4.3-6.47,7.54-8.61,3.24-2.14,7.03-3.21,11.37-3.21s8.24.98,11.33,2.94c3.09,1.96,5.44,4.61,7.05,7.94,1.61,3.33,2.41,7.08,2.41,11.24,0,.6-.03,1.25-.09,1.96-.06.71-.15,1.34-.27,1.87h-35.41c.18,3.33,1.13,6.13,2.85,8.38,1.72,2.26,3.97,3.96,6.73,5.08,2.76,1.13,5.75,1.69,8.96,1.69h11.51v5.44h-11.15Zm-18.91-25.07h29.44c0-1.19-.12-2.51-.36-3.97-.24-1.46-.67-2.9-1.29-4.33-.62-1.43-1.49-2.73-2.59-3.92-1.1-1.19-2.5-2.16-4.19-2.9-1.69-.74-3.76-1.12-6.2-1.12-2.26,0-4.31.48-6.15,1.43-1.84.95-3.39,2.22-4.64,3.79-1.25,1.58-2.22,3.32-2.9,5.22-.68,1.9-1.06,3.84-1.12,5.8Z"/>
      <path class="cls-7" d="m431.81,81.69V16.57h6.24v65.12h-6.24Z"/>
      <path class="cls-13" d="m474.89,81.69c-4.88,0-9.23-.91-13.07-2.72-3.84-1.81-6.87-4.41-9.1-7.8-2.23-3.39-3.34-7.46-3.34-12.22,0-4.4.89-8.4,2.68-12,1.78-3.6,4.3-6.47,7.54-8.61,3.24-2.14,7.03-3.21,11.37-3.21s8.24.98,11.33,2.94c3.09,1.96,5.44,4.61,7.05,7.94,1.61,3.33,2.41,7.08,2.41,11.24,0,.6-.03,1.25-.09,1.96-.06.71-.15,1.34-.27,1.87h-35.41c.18,3.33,1.13,6.13,2.85,8.38,1.72,2.26,3.97,3.96,6.73,5.08,2.76,1.13,5.75,1.69,8.96,1.69h11.51v5.44h-11.15Zm-18.91-25.07h29.44c0-1.19-.12-2.51-.36-3.97-.24-1.46-.67-2.9-1.29-4.33-.62-1.43-1.49-2.73-2.59-3.92-1.1-1.19-2.5-2.16-4.19-2.9-1.69-.74-3.76-1.12-6.2-1.12-2.26,0-4.31.48-6.15,1.43-1.84.95-3.39,2.22-4.64,3.79-1.25,1.58-2.22,3.32-2.9,5.22-.68,1.9-1.06,3.84-1.12,5.8Z"/>
    </g>
  </g>
  <g id="Layer_5" data-name="Layer 5">
    <g>
      <g class="cls-8">
        <g>
          <path class="cls-19" d="m32.5,63.41c.8.3,1.34,1.11,1.43,2.35.1,1.23-.28,2.73-1.03,4.12-.13.25-.28.49-.43.72,1.13.07,1.92.95,2.04,2.47.1,1.21-.27,2.7-1,4.07-.4.75-.9,1.43-1.45,2.01v2.29s3.46-2,3.46-2v-9.79s5.92,3.15,5.92,3.15v3.22s3.46-2,3.46-2v-4.92s-11.73-6.25-11.73-6.25c-.22.19-.45.38-.67.56Z"/>
          <path class="cls-19" d="m6.07,79.52L0,83.02v4s8.67-5.01,8.67-5.01c-.96-.7-1.82-1.54-2.6-2.5Z"/>
          <path class="cls-19" d="m10.89,83.34c-.39.68-.81,1.39-1.26,2.16l-4.35,2.51L0,91.07v4s3.85-2.22,3.85-2.22l1.14.66c-1.01,1.73-2.05,3.53-3.11,5.36l4.92-2.84c.21-.37.43-.74.64-1.1l.64.37,4.9-2.83-3.07-1.78c.39-.67.78-1.34,1.16-2l1.33-.77,4.22,2.44,4.9-2.83-4.92-2.84c-2.04-.07-3.96-.52-5.71-1.34Z"/>
          <path class="cls-19" d="m51.13,33.38s.03-.05.04-.08c0,0,0-.01.01-.02-.02,0-.03-.01-.05-.02v.11Z"/>
          <path class="cls-19" d="m2.79,60.01c.76-1.31,1.77-2.38,2.84-3,.11-.06.21-.09.31-.14v-13.49s9.09-15.75,9.09-15.75v-5.22s-3.46,2-3.46,2v3.56s-5.63,9.75-5.63,9.75v-10.06s-3.46,2-3.46,2v30.97c.1-.21.19-.41.31-.62Z"/>
          <path class="cls-19" d="m8.35,56.68s.08.02.12.04c.21.12.4.28.56.48.12-.25.25-.5.39-.74.65-1.13,1.5-2.06,2.4-2.7v-11.21s8.75-15.16,8.75-15.16v-8.19s-3.46,2-3.46,2v6.53s-8.75,15.16-8.75,15.16v13.78Z"/>
          <path class="cls-19" d="m49.75,13.78c1.06.61,2.02,1.39,2.9,2.28l6.99-4.04v-4s-9.93,5.73-9.93,5.73c.01,0,.03.01.04.02Z"/>
          <path class="cls-19" d="m56.47,22.38l3.17-1.83v-4s-4.62,2.67-4.62,2.67c.56.97,1.04,2.03,1.44,3.17Z"/>
          <path class="cls-19" d="m38.18,12.39c2.58-.57,5.03-.65,7.29-.21l14.18-8.18V0s-21.46,12.39-21.46,12.39Z"/>
          <path class="cls-19" d="m53.58,63.82l-14.19-8.19c-.9,1.42-1.89,2.75-2.94,3.96l13.67,7.89v3.54s7.91-4.56,7.91-4.56l-4.44-2.62h0Z"/>
          <path class="cls-19" d="m56.66,28.69c-.16.37-.34.74-.55,1.09.26.04.51.12.73.25.07.04.12.1.19.15l2.6-1.5v-4s-2.36,1.36-2.36,1.36c-.03.83-.23,1.74-.62,2.65Z"/>
          <path class="cls-19" d="m41.3,52.19l.52-.3,9.75,5.63,8.06-4.65v-4s-6.62,3.82-6.62,3.82l-6.29-3.63,12.91-7.45v-4s-16.29,9.4-16.29,9.4c-.51,1.71-1.19,3.45-2.05,5.18Z"/>
        </g>
        <g>
          <path class="cls-16" d="m99.94,21.68l-1.52-2.64-4.9-2.83,3.15,5.46c.87-.48,2.01-.5,3.27,0Z"/>
          <path class="cls-16" d="m94.87,27.28v-1.72s0-.03,0-.04l-7.38-12.78-4.9-2.83,8.91,15.43,3.37,1.94Z"/>
          <polygon class="cls-16" points="103 32.64 109.79 44.4 109.79 38.74 107.9 35.47 103 32.64"/>
          <polygon class="cls-16" points="61.09 8.86 59.64 8.02 59.64 12.02 61.09 12.86 61.09 8.86"/>
          <path class="cls-16" d="m63.16,2.04l-3.53-2.04v4s1.55.89,1.55.89c.25-1.45.96-2.43,1.98-2.86Z"/>
          <polygon class="cls-16" points="102.91 39.43 102.91 40.53 103.86 41.08 102.91 39.43"/>
          <polygon class="cls-16" points="109.79 81.83 109.79 77.83 107.32 76.4 109.29 75.29 104.36 72.44 102.91 73.26 102.91 78.89 103.82 78.38 109.79 81.83"/>
          <polygon class="cls-16" points="75.86 58.24 69.12 54.35 69.12 58.35 72.36 60.21 70.87 61.05 75.8 63.9 76 63.78 76 58.16 75.86 58.24"/>
          <polygon class="cls-16" points="71.57 18.91 74.62 24.2 76 25 76 20.94 73 15.74 69.12 13.5 69.12 17.5 71.57 18.91"/>
          <polygon class="cls-16" points="110.78 27.85 109.33 25.34 104.44 22.52 105.88 25.02 110.78 27.85"/>
          <path class="cls-16" d="m86.71,52.12l-.04.02-10.08-17.46v5.66s7.62,13.2,7.62,13.2l-1.08.61c.58,1.39.92,2.84.92,4.18v.93s2.61-1.47,2.61-1.47l.69,1.19,6.95,4.01-2.6,1.47,3.19,1.84v-1.72c0-2.1.82-3.51,2.11-4.03l-8.15-4.71-2.13-3.71Z"/>
          <path class="cls-16" d="m61.09,18.77v-1.39s-1.45-.84-1.45-.84v4s1.9,1.09,1.9,1.09c-.29-.97-.45-1.95-.45-2.87Z"/>
          <path class="cls-16" d="m92.29,49.14l-8.62-14.94c-.42,1.06-1.16,1.74-2.12,1.98l9.31,16.13,11.48,6.63v-4s-10.05-5.8-10.05-5.8Z"/>
          <path class="cls-16" d="m100.84,48.62c-1.89-1.09-3.57-3.08-4.66-5.29l-.66-.38-5.21-9.02-4.9-2.83,8.67,15.02,8.24,4.76v-1.4s-1.49-.86-1.49-.86Z"/>
          <polygon class="cls-16" points="61.09 49.71 59.64 48.87 59.64 52.87 61.09 53.71 61.09 49.71"/>
          <polygon class="cls-16" points="117.83 86.47 119.28 87.3 119.28 79.17 117.83 79.99 117.83 86.47"/>
          <path class="cls-16" d="m117.72,76.51l1.55.9v-4s-3.56-2.06-3.56-2.06c1.03,1.6,1.76,3.42,2.01,5.16Z"/>
          <path class="cls-16" d="m111.86,54.98l-1.49-.86v1.4s8.91,5.14,8.91,5.14v-5.49s-1.52-2.64-1.52-2.64c-.44,3.05-2.91,4.17-5.89,2.45Z"/>
          <polygon class="cls-16" points="110.37 63.58 119.28 68.72 119.28 64.72 110.37 59.58 110.37 63.58"/>
          <polygon class="cls-16" points="117.83 45.71 119.28 48.22 119.28 42.56 117.83 40.05 117.83 45.71"/>
          <polygon class="cls-16" points="115.35 28.82 119.28 35.61 119.28 31.08 115.35 28.82"/>
          <path class="cls-16" d="m65.42,40.95l-5.78-3.34v4s1.9,1.1,1.9,1.1c.69-1.53,2.12-2.19,3.88-1.76Z"/>
          <path class="cls-16" d="m67.06,68.13c-1.22-.7-2.35-1.79-3.3-3.06l-2.48,1.4,4.93,2.85,1.46-.83-.62-.36Z"/>
          <path class="cls-16" d="m68.55,29.97l-1.49-.86c-.42-.24-.84-.54-1.24-.87l-6.18-3.57v4s8.91,5.14,8.91,5.14v-3.85Z"/>
          <polygon class="cls-16" points="119.27 99.94 119.28 99.94 119.28 94.31 114.34 97.09 119.27 99.94"/>
          <path class="cls-16" d="m84.04,69.32v1.72c0,3.8-2.68,5.35-5.97,3.45l-2.06-1.19-1.46.83,4.93,2.85,9.01-5.08-4.44-2.56Z"/>
          <path class="cls-16" d="m94.89,77.78l-7.09,4,4.93,2.85,3.58-2.02c-.81-1.56-1.33-3.25-1.42-4.82Z"/>
          <polygon class="cls-16" points="102.54 88.61 101.07 89.44 106 92.28 107.47 91.46 102.54 88.61"/>
        </g>
        <g>
          <path class="cls-9" d="m60.67,97.96l7.66,4.42c-.56-1.27-.47-2.6.27-3.85l-2.11-1.22c-1.83.5-3.83.72-5.81.64Z"/>
          <path class="cls-9" d="m46.84,85.98c-.97.86-1.7,1.78-2.2,2.73l5.21,3.01c-.13-1.14.24-2.3,1.11-3.36l-4.12-2.38Z"/>
          <path class="cls-9" d="m27.96,90.35l3.13,1.81c.41.11.81.24,1.21.37-.08-1.16.05-2.32.37-3.46l-2.68-1.55h-8.47s-4.9,2.83-4.9,2.83h11.34Z"/>
          <path class="cls-9" d="m65.92,109.27c.05-.28.18-.54.35-.8l-20.59-11.89c.89,1.07,2.08,2.07,3.61,2.95.46.27,1,.54,1.64.83.17.08.34.16.5.26,1.25.72,1.85,1.72,1.65,2.73-.08.41-.29.8-.6,1.15l1.23.71c3.17-.09,6.39.55,8.8,1.95,1.09.63,1.91,1.35,2.47,2.12h.94Z"/>
          <path class="cls-9" d="m10.9,95.28c.55-.46,1.17-.91,1.89-1.32,1.05-.6,2.21-1.1,3.44-1.51h-3.25s-4.9,2.83-4.9,2.83h2.83Z"/>
          <path class="cls-9" d="m38.58,81.21l-3.06-1.77-3.46,2,3.8,2.19c.78-.84,1.69-1.65,2.72-2.43Z"/>
          <path class="cls-9" d="m44.9,74.02l-3.46,2,3.12,1.8c1.37-.58,2.81-1.09,4.29-1.52l-3.94-2.28Z"/>
          <path class="cls-9" d="m76.85,124.44l-5.45-3.15c-.08.05-.16.1-.24.15-1.42.82-2.99,1.5-4.65,2.06-.01,1.48-.04,3.98-.06,6.95l4.92-2.84c0-.79.01-1.56.02-2.32l2,1.15,3.46-2Z"/>
          <path class="cls-9" d="m114.34,97.09l-11.67-.04c.87,1.59,1.2,3.24,1.02,4.89l6.06,3.5,3.46-2-6.14-3.55,12.19.04-4.93-2.85Z"/>
          <path class="cls-9" d="m68.54,81.65l11.74,6.78c-.91-1.56-2.42-3-4.49-4.19s-4.6-2.07-7.25-2.58Z"/>
          <path class="cls-9" d="m72.94,90.21c.33,1.2.1,2.45-.7,3.59l1.77,1.02c1.72-.54,3.62-.8,5.53-.81l-6.59-3.81Z"/>
          <path class="cls-9" d="m57.75,81.44c-1.69.26-3.33.65-4.87,1.19l4.17,2.41c1.98-.46,4.14-.6,6.23-.41l-5.53-3.19Z"/>
          <path class="cls-9" d="m20.95,102.36c.57.33,1.27.54,2,.66.01-1.7.03-3.39.04-5.01-.75.11-1.46.33-2.04.67-1.76,1.02-1.76,2.67,0,3.69Z"/>
          <path class="cls-9" d="m92.55,89.65c1.61.56,3.11,1.23,4.45,2.01.33.19.63.4.94.6l8.06.03-4.93-2.85-8.59-.03c.02.08.05.16.07.24Z"/>
          <path class="cls-9" d="m92.72,112.46c-1.5.53-3.08.95-4.73,1.27l3.7,2.14,3.46-2-2.44-1.41Z"/>
          <path class="cls-9" d="m28.64,100.61c.04-.7-.38-1.41-1.31-1.94-.92-.53-2.15-.78-3.36-.75l4.67,2.69Z"/>
          <path class="cls-9" d="m90.04,84.61h2.7s-4.93-2.84-4.93-2.84h-.58c1.1.89,2.03,1.85,2.81,2.84Z"/>
          <path class="cls-9" d="m50.11,71.01l6.48,3.74c7.34-.84,15.12-.11,21.69,2.21h1.19s-4.93-2.84-4.93-2.84l-12.19-.04-8.34-4.81,12.19.04-4.93-2.85h-3.26s-7.9,4.55-7.9,4.55Z"/>
          <path class="cls-9" d="m101.57,106.74c-.7.87-1.57,1.71-2.62,2.49l2.13,1.23,3.46-2-2.97-1.72Z"/>
          <path class="cls-9" d="m34.13,119.58s0,.05,0,.07l4.89,2.82c0-.25,0-.49,0-.74-.18-.1-.37-.19-.55-.29-1.81-1.04-3.24-2.22-4.33-3.48,0,.54,0,1.07,0,1.61Z"/>
          <path class="cls-9" d="m77.38,114.88c-.39,1.03-.98,2.03-1.78,2.97l6.33,3.66,3.46-2-8.01-4.63Z"/>
          <path class="cls-9" d="m18.01,109.07c0,.4,0,.8,0,1.2,0,.02,0,.05,0,.07l4.88,2.82c0-1.11,0-2.25.02-3.41-1.67-.07-3.32-.3-4.89-.67Z"/>
          <path class="cls-9" d="m50.26,128.89s0,.05,0,.07l4.89,2.82c0-2.06.02-4.24.03-6.45-1.64.02-3.28-.06-4.9-.25,0,1.25-.02,2.53-.02,3.81Z"/>
          <path class="cls-9" d="m1.88,98.86c0,.7,0,1.39-.01,2.1,0,.02,0,.05,0,.07l4.89,2.82c0-2.49.02-5.15.04-7.82l-4.92,2.84Z"/>
        </g>
      </g>
      <g>
        <path class="cls-5" d="m80.45,32.71s0,0,0,0l3.63-2.1-.44-2.01-2.21.92-4.5-3.01-.55,2.83-.28.29v1.71l1.96,1.13c.93.54,1.77.59,2.38.23h0s0,0,0,0Z"/>
        <path class="cls-5" d="m67.05,26.11l4.09,2.36v17.38c1.58.73,3.18,1.47,4.75,2.19v-17.57l.31-1.34c0-1.18-.17-2.43.45-2.89l-7.5-5.55-.16-10.99.62-2.62-.18-1.04.71-.84-1.84-1.93-3.63,2.1c-.41.24-.7.67-.86,1.24-.08.28-.13.59-.13.94v12.72c0,2.15,1.51,4.77,3.37,5.84Z"/>
        <path class="cls-5" d="m69.32,45.94l-2.27-1.31c-1.12-.65-2.11-.59-2.72.03.6-.62,1.6-.69,2.72-.04l2.27,1.32Z"/>
        <polygon class="cls-5" points="69.32 45.94 69.02 46.14 69.24 45.89 69.32 45.94"/>
        <path class="cls-5" d="m104.92,62.29v2.18l-.97-.13-.92,1.06-1.58,1.81-.35.05v1.44l-.8-.46-1.22-.71-1.61-.92v-.53c0-.32.03-.62.1-.89.02-.09.05-.17.08-.25.02-.06.04-.12.07-.18.01-.04.03-.08.05-.11.06-.12.13-.22.2-.32.04-.06.09-.11.15-.16.1-.11.22-.19.34-.26h0s.11-.08.11-.08h.03s3.42-1.99,3.42-1.99l.06-.04c.13-.08.28-.13.43-.17.07-.02.14-.03.21-.04.41-.05.86.03,1.35.24.13.06.27.12.4.2l.45.26Z"/>
        <path class="cls-5" d="m104.92,23.31v2.18l-.97-.13-.92,1.06-1.58,1.81-.35.05v1.44l-.8-.46-1.22-.71-1.61-.92v-.53c0-.32.03-.62.1-.89.02-.09.05-.17.08-.25.02-.06.04-.12.07-.18.01-.04.03-.08.05-.11.06-.12.13-.22.2-.32.04-.06.09-.11.15-.16.1-.11.22-.19.34-.26h0s.11-.08.11-.08h.03s3.42-1.99,3.42-1.99l.06-.04c.13-.08.28-.13.43-.17.07-.02.14-.03.21-.04.41-.05.86.03,1.35.24.13.06.27.12.4.2l.45.26Z"/>
        <path class="cls-5" d="m84.09,69.63l-3.59,2.07-.05.03s-.08.04-.12.06c-.06.03-.11.05-.18.07-.06.02-.12.04-.18.05s-.13.02-.2.03c-.5.05-1.08-.09-1.7-.45l-1.96-1.13-9.05-5.23c-1.86-1.07-3.37-3.69-3.37-5.84v-12.72c0-.43.06-.82.18-1.14.02-.06.04-.12.07-.18.01-.04.03-.08.05-.11.06-.12.13-.22.2-.32.04-.06.09-.11.15-.16.07-.07.14-.13.22-.18.04-.03.09-.06.13-.08h-.01s3.63-2.11,3.63-2.11h0c.61-.35,1.45-.3,2.38.24l2.44,1.41.4,1.33-3.35-.44-.93,1.06-.22.25-.82.56.16.04.02.14.2,1.91,1.23,11.47,8.78,5.64,2.25,1.44-.36.57.95.63,2.21-.92.44,2.01Z"/>
        <path class="cls-5" d="m82.23,14.07v12.72c0,.34-.24.48-.53.31l-.27-.16-2.84-1.63v-9.14c0-.34-.23-.75-.53-.92l-7.91-4.57v-3.58c0-.34.24-.48.53-.31l11.02,6.36c.29.17.53.58.53.92Z"/>
        <path class="cls-5" d="m82.23,53.08v12.72c0,.34-.24.48-.53.31l-.27-.16-2.84-1.63v-9.14c0-.34-.23-.75-.53-.92l-7.91-4.57v-3.58c0-.34.24-.48.53-.31l11.02,6.36c.29.17.53.58.53.92Z"/>
        <path class="cls-5" d="m116.02,33.58v12.72c0,.34-.24.48-.53.31l-.27-.16-2.84-1.63v-9.14c0-.34-.23-.75-.53-.92l-7.91-4.57v-3.58c0-.34.24-.48.53-.31l11.02,6.36c.29.17.53.58.53.92Z"/>
        <path class="cls-5" d="m116.02,72.59v12.72c0,.34-.24.48-.53.31l-.27-.16-2.84-1.63v-9.14c0-.34-.23-.75-.53-.92l-7.91-4.57v-3.58c0-.34.24-.48.53-.31l11.02,6.36c.29.17.53.58.53.92Z"/>
        <path class="cls-5" d="m117.88,89.14l-3.54,2.03-.1.06c-.07.04-.13.07-.2.1-.07.03-.14.05-.22.07-.04.01-.09.02-.14.03-.04.01-.08.02-.12.02-.5.05-1.08-.09-1.7-.45l-1.96-1.13-9.06-5.23c-1.86-1.08-3.37-3.69-3.37-5.84v-4.72l-12.39-7.16v-4.19l12.39,7.15,2.84,1.64.8.46v4.72c0,2.15,1.51,4.77,3.37,5.84l6.06,3.5.19-1,4.5,3.01,2.21-.92.44,2.01Z"/>
        <path class="cls-5" d="m117.88,89.14l-3.54,2.03-.1.06c-.07.04-.13.07-.2.1-.07.03-.14.05-.22.07-.04.01-.09.02-.14.03-.04.01-.08.02-.12.02-.5.05-1.08-.09-1.7-.45l-1.96-1.13-9.06-5.23c-1.86-1.08-3.37-3.69-3.37-5.84v-4.72l-12.39-7.16v-4.19l12.39,7.15,2.84,1.64.8.46v4.72c0,2.15,1.51,4.77,3.37,5.84l6.06,3.5.19-1,4.5,3.01,2.21-.92.44,2.01Z"/>
        <path class="cls-5" d="m117.88,50.12l-3.54,2.03-.1.06c-.07.04-.13.07-.2.1-.07.03-.14.05-.22.07-.04.01-.09.02-.14.03-.04.01-.08.02-.12.02-.5.05-1.08-.09-1.7-.45l-1.96-1.13-9.06-5.23c-1.86-1.08-3.37-3.69-3.37-5.84v-4.72l-12.39-7.16v-4.19l12.39,7.15,2.84,1.64.8.46v4.72c0,2.15,1.51,4.77,3.37,5.84l6.06,3.5.19-1,4.5,3.01,2.21-.92.44,2.01Z"/>
        <polygon class="cls-5" points="108.56 45.89 108.56 64.4 107.76 63.94 106.9 63.44 104.92 62.29 104.92 47.99 108.56 45.89"/>
        <polygon class="cls-5" points="74.77 26.38 74.77 44.89 73.97 44.43 73.11 43.93 71.13 42.78 71.13 28.48 74.77 26.38"/>
        <path class="cls-14" d="m115.49,49.88c1.86,1.07,3.37.2,3.37-1.95v-12.72c0-2.15-1.51-4.77-3.37-5.84l-11.02-6.36c-1.86-1.07-3.37-.2-3.37,1.95v4.72s-16.03-9.25-16.03-9.25v-4.72c0-2.15-1.51-4.77-3.37-5.84l-11.02-6.36c-1.86-1.07-3.37-.2-3.37,1.95v12.72c0,2.15,1.51,4.77,3.37,5.84l4.09,2.36v18.51s-4.09-2.36-4.09-2.36c-1.86-1.07-3.37-.2-3.37,1.95v12.72c0,2.15,1.51,4.77,3.37,5.84l11.02,6.36c1.86,1.07,3.37.2,3.37-1.95v-4.72s16.03,9.25,16.03,9.25v4.72c0,2.15,1.51,4.77,3.37,5.84l11.02,6.36c1.86,1.07,3.37.2,3.37-1.95v-12.72c0-2.15-1.51-4.76-3.37-5.84l-4.09-2.36v-18.51s4.09,2.36,4.09,2.36Zm-11.55-23.28c0-.34.24-.48.53-.31l11.02,6.36c.29.17.53.58.53.92v12.72c0,.34-.24.48-.53.31l-11.02-6.36c-.29-.17-.53-.58-.53-.92v-12.72Zm-33.26-5.87c-.29-.17-.53-.58-.53-.92V7.09c0-.34.24-.47.53-.31l11.02,6.36c.29.17.53.58.53.92v12.72c0,.34-.24.48-.53.31l-11.02-6.36Zm11.55,45.07c0,.34-.24.48-.53.31l-11.02-6.36c-.29-.17-.53-.58-.53-.92v-12.72c0-.34.24-.47.53-.31l11.02,6.36c.29.17.53.58.53.92v12.72Zm33.79,6.79v12.72c0,.34-.24.48-.53.31l-11.02-6.36c-.29-.17-.53-.58-.53-.92v-12.72c0-.34.24-.48.53-.31l11.02,6.36c.29.17.53.58.53.92Zm-7.46-8.2l-4.09-2.36c-1.86-1.07-3.37-.2-3.37,1.95v4.72s-16.03-9.25-16.03-9.25v-4.72c0-2.15-1.51-4.76-3.37-5.84l-4.09-2.36v-18.51s4.09,2.36,4.09,2.36c1.86,1.07,3.37.2,3.37-1.95v-4.72s16.03,9.25,16.03,9.25v4.72c0,2.15,1.51,4.77,3.37,5.84l4.09,2.36v18.51Z"/>
      </g>
      <g>
        <path class="cls-15" d="m70.55,114.18c-.62,1.58-2,3.06-4.08,4.26-5.95,3.43-15.62,3.43-21.57,0-2.6-1.5-4.07-3.42-4.39-5.38l-4.51.04c-.07,3.19,1.69,6.36,5.42,8.51,7.58,4.38,18.48,6.59,26.06,2.21,3.54-2.04,6.52-5.47,6.84-8.39l-3.77-1.25Z"/>
        <path class="cls-15" d="m36,113.1l4.51-.04c-.42-2.53,1.05-5.14,4.39-7.07.11-.06.23-.12.34-.18l1.49,1.67,3.58-.1v-4.2h-.01c0-.32-.21-.63-.6-.85-.06-.03-.12-.06-.18-.09-.76-.35-1.4-.67-1.96-1-4.64-2.68-6.82-6.25-6.53-9.77.03-.36.09-.72.17-1.07h-4.2c-.43,2.27,0,4.59,1.31,6.77,1.02,1.69,2.56,3.29,4.63,4.72l-1.42-.25,1.73,1.94c-.46.22-.9.45-1.32.69-3.85,2.22-5.87,5.53-5.94,8.82Z"/>
        <path class="cls-15" d="m96.75,101.14c0,.16.02.32.01.47-.14,2.15-1.62,4.27-4.45,5.9-4.99,2.88-12.68,3.41-18.71,1.29-.72-.25-1.64-.23-2.32.06-.55.23-.84.6-.84.98h-.01s0,4.2,0,4.2l.18.03s-.04.08-.05.12l3.77,1.25c.03-.26.04-.52.03-.77,6.94,1.42,22.06-3.65,22.06-3.65,0,0,1.82-3.75,2.39-7.92.09-.65.14-1.3.16-1.96h-2.2Z"/>
        <path class="cls-15" d="m88.44,100.92c0-1.18-.78-2.36-2.33-3.25-3.11-1.79-8.16-1.79-11.27,0-1.55.9-2.33,2.08-2.33,3.25v4.2h3.04c0-.73.05,2.06,1.05,2.55,2.65,1.31,5.61,1.27,7.32-.19.84-.72,1.72-1.25,1.48-2.36h3.04v-4.2Zm-5.17,1.61c-1.54.89-4.05.89-5.59,0-.42-.24-.73-.53-.92-.83,1.26-.19,6.18-.25,7.16.34-.17.18-.39.34-.65.49Z"/>
        <path class="cls-15" d="m87.04,105.11l-4.14-2.41c-1.46.66-3.54.65-4.97-.05l-2.92,2.46h.54c0-.73.05,2.06,1.05,2.55,2.65,1.31,5.61,1.27,7.32-.19.84-.72,1.72-1.25,1.48-2.36h1.65Z"/>
        <path class="cls-4" d="m86.1,101.86c-3.11-1.79-8.16-1.79-11.27,0-3.11,1.79-3.11,4.71,0,6.51,3.11,1.79,8.17,1.79,11.27,0,3.11-1.79,3.11-4.71,0-6.51Zm-2.84,4.87c-1.54.89-4.05.89-5.59,0s-1.54-2.34,0-3.23c1.54-.89,4.05-.89,5.59,0,1.54.89,1.54,2.34,0,3.23Z"/>
        <path class="cls-15" d="m70.3,91.48c0-1.18-.78-2.36-2.33-3.25-3.11-1.79-8.16-1.79-11.27,0-1.55.9-2.33,2.08-2.33,3.25v4.2h3.04c0-.73.05,2.06,1.05,2.55,2.65,1.31,5.61,1.27,7.32-.19.84-.72,1.72-1.25,1.48-2.36h3.04v-4.2Zm-5.17,1.61c-1.54.89-4.05.89-5.59,0-.42-.24-.73-.53-.92-.83,1.26-.19,6.18-.25,7.16.34-.17.18-.39.34-.65.49Z"/>
        <path class="cls-15" d="m68.9,95.67l-4.14-2.41c-1.46.66-3.54.65-4.97-.05l-2.92,2.46h.54c0-.73.05,2.06,1.05,2.55,2.65,1.31,5.61,1.27,7.32-.19.84-.72,1.72-1.25,1.48-2.36h1.65Z"/>
        <path class="cls-6" d="m67.96,92.42c-3.11-1.79-8.16-1.79-11.27,0-3.11,1.79-3.11,4.71,0,6.51s8.17,1.79,11.27,0c3.11-1.79,3.11-4.71,0-6.51Zm-2.84,4.87c-1.54.89-4.05.89-5.59,0s-1.54-2.34,0-3.23c1.54-.89,4.05-.89,5.59,0,1.54.89,1.54,2.34,0,3.23Z"/>
        <path class="cls-15" d="m63.12,112.3c0-1.18-.78-2.36-2.33-3.25-3.11-1.79-8.16-1.79-11.27,0-1.55.9-2.33,2.08-2.33,3.25v4.2h3.04c0-.73.05,2.06,1.05,2.55,2.65,1.31,5.61,1.27,7.32-.19.84-.72,1.72-1.25,1.48-2.36h3.04v-4.2Zm-5.17,1.61c-1.54.89-4.05.89-5.59,0-.42-.24-.73-.53-.92-.83,1.26-.19,6.18-.25,7.16.34-.17.18-.39.34-.65.49Z"/>
        <path class="cls-15" d="m61.72,116.5l-4.14-2.41c-1.46.66-3.54.65-4.97-.05l-2.92,2.46h.54c0-.73.05,2.06,1.05,2.55,2.65,1.31,5.61,1.27,7.32-.19.84-.72,1.72-1.25,1.48-2.36h1.65Z"/>
        <path class="cls-12" d="m60.79,113.25c-3.11-1.79-8.16-1.79-11.27,0-3.11,1.79-3.11,4.71,0,6.51s8.17,1.79,11.27,0c3.11-1.79,3.11-4.71,0-6.51Zm-2.84,4.87c-1.54.89-4.05.89-5.59,0s-1.54-2.34,0-3.23c1.54-.89,4.05-.89,5.59,0,1.54.89,1.54,2.34,0,3.23Z"/>
        <path class="cls-15" d="m37.43,100.76c.02-1.84-1.19-3.69-3.62-5.09-4.83-2.79-12.68-2.79-17.51,0-2.4,1.38-3.6,3.2-3.62,5.02h0l-.04,4.2h2.37c.34.28.72.55,1.14.8-.4-1.57.43-3.22,2.52-4.43,3.5-2.02,9.2-2.02,12.7,0,2.11,1.22,2.94,2.9,2.51,4.48.42-.25.8-.51,1.15-.79h2.37s.04-4.19.04-4.19h0Z"/>
        <path class="cls-15" d="m34.15,108.1c-5.86,4.17-15.43,3.62-18.63-.97-1.37-1.97.89-6.87,1.52-5.32.34.83,1.06,1.61,2.18,2.25,3.19,1.84,8.39,1.84,11.59,0,1.06-.61,1.76-1.35,2.12-2.12.72-1.58,3.36,7.4,1.22,6.16Z"/>
        <path class="cls-3" d="m33.77,99.86c-4.83-2.79-12.68-2.79-17.51,0-4.83,2.79-4.83,7.32,0,10.11,4.83,2.79,12.68,2.79,17.51,0,4.83-2.79,4.83-7.32,0-10.11Zm-2.96,8.4c-3.19,1.84-8.39,1.84-11.59,0s-3.19-4.85,0-6.69c3.19-1.84,8.39-1.84,11.59,0s3.2,4.85,0,6.69Z"/>
        <path class="cls-15" d="m87.13,93.1c.19.04.36.1.55.14v-2.85h-2.08c.12.53.2,1.06.21,1.59,0,.49.53.93,1.32,1.11Z"/>
        <g>
          <path class="cls-15" d="m44.9,110.18c1.21-.7,2.63-1.27,4.22-1.71.65-.18,1.1-.54,1.18-.96.07-.37-.15-.73-.6-.99-.06-.03-.12-.06-.18-.09-.76-.35-1.4-.67-1.96-1-1.25-.72-2.29-1.51-3.18-2.34-.87.36-1.69.75-2.44,1.18-3.79,2.19-5.68,5.06-5.68,7.94v4.2l1.43.04c.93,1.32,2.32,2.56,4.16,3.64-2.59-3.25-1.58-7.23,3.05-9.91Z"/>
          <path class="cls-15" d="m73.61,113c-.72-.25-1.64-.23-2.32.06-.68.29-1,.79-.8,1.26.83,1.97.47,3.98-.92,5.75,3.12-1.84,4.98-4.17,5.43-6.64-.47-.13-.93-.27-1.38-.43Z"/>
          <path class="cls-15" d="m95.28,93.36c-1.56-.9-3.35-1.63-5.33-2.18-.38-3.76-3.1-7.27-7.74-9.95-10.37-5.99-27.24-5.99-37.61,0-5.19,2.99-7.78,6.93-7.78,10.86h0v4.2l1.08.16c1.08,2.13,2.98,4.14,5.68,5.88-4.46-4.89-3.13-11.08,3.97-15.19,8.74-5.04,22.96-5.04,31.69,0,4.18,2.42,6.51,5.63,6.56,9.05,0,.49.53.93,1.32,1.11,1.96.45,3.7,1.11,5.18,1.96,4.63,2.67,5.64,6.65,3.05,9.91,1.94-1.14,3.37-2.46,4.3-3.87l1.29.19v-4.2c0-2.87-1.89-5.75-5.68-7.94Z"/>
        </g>
        <path class="cls-10" d="m95.28,97.55c-1.56-.9-3.35-1.63-5.33-2.18-.38-3.76-3.1-7.27-7.74-9.95-10.37-5.99-27.24-5.99-37.61,0-10.37,5.99-10.37,15.73,0,21.72.02.01.04.02.05.03-.98.39-1.88.82-2.71,1.3-7.58,4.38-7.58,11.5,0,15.87,7.58,4.38,19.91,4.38,27.49,0,3.86-2.23,5.85-5.2,5.68-8.27,6.94,1.42,14.79.45,20.17-2.65,7.58-4.38,7.58-11.5,0-15.87Zm-2.96,14.16c-4.99,2.88-12.68,3.41-18.71,1.29-.72-.25-1.64-.23-2.32.06-.68.29-1,.79-.8,1.26,1.27,3.02-.23,6.13-4.01,8.32-5.95,3.43-15.62,3.43-21.57,0-5.95-3.43-5.95-9.02,0-12.45,1.21-.7,2.63-1.27,4.22-1.71.65-.18,1.1-.54,1.18-.96.07-.37-.15-.73-.6-.99-.06-.03-.12-.06-.18-.09-.76-.35-1.4-.67-1.96-1-8.74-5.04-8.74-13.25,0-18.3,8.74-5.04,22.96-5.04,31.69,0,4.18,2.42,6.51,5.63,6.56,9.05,0,.49.53.93,1.32,1.11,1.96.45,3.7,1.11,5.18,1.96,5.95,3.43,5.95,9.02,0,12.45Z"/>
      </g>
      <g>
        <path class="cls-16" d="m55.01,33.21s0,0,0,0l-3.63-2.1-2.01,3.48,3.63,2.1c.55.32,1.45-.2,2.01-1.16s.55-2,0-2.32Z"/>
        <path class="cls-16" d="m48.38,36.76s0,0,0,0l-3.63-2.1-2.01,3.48,3.63,2.1h0s0,0,0,0c.55.32,1.45-.2,2.01-1.16s.55-2,0-2.32Z"/>
        <path class="cls-16" d="m48.12,32.06c-.83-3.12-2.46-5.57-4.9-6.98l-3.63-2.1.24.95c-3.08-.43-6.6.5-10.12,2.55-.83.49-1.49,1.69-1.42,2.6.06.81.68,1.11,1.41.68,4.06-2.38,8.12-3,11.26-1.33l1.14,4.49,3.63,2.1h0c.32.18.79.1,1.26-.28.82-.64,1.33-1.88,1.12-2.68Z"/>
        <path class="cls-16" d="m48.12,32.06c-.83-3.12-2.46-5.57-4.9-6.98-2.21-1.27-4.83-1.54-7.61-.96l-8.17.33-2.37,3.32,3.63,2.1h0c.26.14.61.12,1-.1,4.16-2.44,8.34-3.04,11.51-1.21,2.07,1.2,3.46,3.29,4.17,5.94.19.71.9.81,1.62.24.82-.64,1.33-1.88,1.12-2.68Z"/>
        <path class="cls-16" d="m54.67,26.96c-1.07-4.48-3.32-8.01-6.75-10h0s0,0,0,0c0,0,0,0,0,0,0,0,0,0,0,0l-2.01,3.48s1.67,1.15,2.38,1.88l.36,5.44,3.63,2.1h0c.32.18.78.1,1.25-.27h0c.79-.63,1.32-1.83,1.13-2.63Z"/>
        <path class="cls-16" d="m54.67,26.96c-1.07-4.48-3.32-8.01-6.75-10h0s0,0,0,0c0,0,0,0,0,0,0,0,0,0,0,0l-3.63-2.1-.71.6c-1.9-.3-3.92-.22-6.02.23l.23-.64-10.49,2.58-2.8,2.83,3.63,2.1h0c.27.15.65.12,1.06-.13,6.03-3.67,12.12-4.64,16.71-1.98.89.51,1.67,1.15,2.38,1.88l.36,5.44,3.63,2.1h0c.32.18.78.1,1.25-.27h0c.79-.63,1.32-1.83,1.13-2.63Z"/>
        <path class="cls-16" d="m31.51,74.05h0s-3.63-2.11-3.63-2.11l-6.9,4.7-5.35.37c-.66-.23-1.9-.86-1.9-.86l-4.73,1.32-.91.06,3.63,2.1h0s0,0,0,0c5.18,2.99,12.04,1.9,18.84-2.25.81-.49,1.43-1.67,1.36-2.56-.03-.38-.18-.64-.41-.77Z"/>
        <path class="cls-16" d="m13.73,76.16s-5.04-4.89-6-8.85c-.06-.27-.2-.46-.38-.56h0s-3.63-2.1-3.63-2.1l-.89,4.83,2.9,3.05.1-.15c1.24,3.18,5.89,7.26,5.89,7.26l2.01-3.48Z"/>
        <path class="cls-16" d="m30.93,66.73h0s-3.63-2.1-3.63-2.1l-4.55,3.08-3.72.64c-.2-.09-.4-.2-.6-.31-2.07-1.2-3.46-3.29-4.17-5.94-.19-.71-.9-.81-1.62-.24-.82.64-1.33,1.88-1.12,2.68.49,1.82,1.25,3.41,2.29,4.7l-1.02.18,3.63,2.1c3.72,2.15,8.62,1.45,13.51-1.4.83-.49,1.49-1.69,1.42-2.6-.03-.38-.19-.64-.41-.78Z"/>
        <path class="cls-16" d="m29.93,66.83c-4.16,2.44-8.34,3.04-11.51,1.21-2.07-1.2-3.46-3.29-4.17-5.94-.06-.24-.19-.41-.36-.5h0s-3.63-2.11-3.63-2.11l-.52,4.02,1.9,1.97.14-.09c.89,2.71,2.43,4.85,4.64,6.13,3.72,2.15,8.62,1.45,13.51-1.4.83-.49,1.49-1.69,1.42-2.6-.06-.81-.68-1.11-1.41-.68Z"/>
        <path class="cls-16" d="m21.28,63.09c-4.71-2.72-7.51-12.94-2.8-21.1,4.71-8.15,15.17-11.19,19.88-8.48.58,14.28-3.97,20.52-3.97,20.52,0,0-9.45,7.37-13.1,9.05Zm15.07-26.09c-3.6-2.08-9.46,1.3-13.06,7.54-3.6,6.24-3.6,13,0,15.08,3.6,2.08,9.46-1.3,13.06-7.54,3.6-6.24,3.6-13,0-15.08Z"/>
        <path class="cls-16" d="m33.51,41.91l-3.63-2.1-3.07,5.32c-.24.33-.46.67-.67,1.04-.21.37-.39.73-.56,1.1l-3.07,5.32,3.63,2.1h0c2.03,1.17,5.35-.74,7.38-4.26,2.03-3.52,2.03-7.35,0-8.52Z"/>
        <path class="cls-16" d="m38.52,33.55s-.04-.02-.05-.03h0s-3.79-2.14-3.79-2.14c0,0-.94.9-.88,1.54,6.06,5.64,3.72,12.01.29,17.64-3.42,5.63-7.76,8.06-10.05,9.01s-5.44-.11-5.44-.11l-.88,1.54,3.79,2.14h0c4.71,2.65,12.33-1.76,17.02-9.89,4.71-8.15,4.71-17,0-19.72Z"/>
        <path class="cls-16" d="m13.26,56.36s0,0,0,0l-3.63-2.1-2.01,3.48,3.63,2.1c.55.32,1.45-.2,2.01-1.16s.55-2,0-2.32Z"/>
        <path class="cls-16" d="m6.63,59.91s0,0,0,0l-3.63-2.1-2.01,3.48,3.63,2.1c.55.32,1.45-.2,2.01-1.16s.55-2,0-2.32Z"/>
        <path class="cls-21" d="m44.75,34.66c-.55-.32-1.45.2-2.01,1.16s-.55,2,0,2.32,1.45-.2,2.01-1.16.55-2,0-2.32Zm6.63-3.55c-.55-.32-1.45.2-2.01,1.16s-.55,2,0,2.32,1.45-.2,2.01-1.16.55-2,0-2.32Zm-27.29-11.43c.07.83.71,1.11,1.47.64,6.03-3.67,12.12-4.64,16.71-1.98,3.05,1.76,5.04,4.89,6,8.85.18.75.89.88,1.64.3h0c.79-.63,1.32-1.83,1.13-2.63-1.07-4.48-3.32-8.01-6.76-10-5.18-2.99-12.04-1.9-18.84,2.25-.81.49-1.43,1.67-1.36,2.56h0Zm2,4.71c4.89-2.85,9.79-3.55,13.51-1.4,2.44,1.41,4.07,3.86,4.9,6.98.21.8-.3,2.04-1.12,2.68h0c-.72.57-1.43.47-1.62-.24-.7-2.65-2.09-4.75-4.17-5.94-3.17-1.83-7.34-1.23-11.51,1.21-.73.43-1.35.13-1.41-.68h0c-.07-.92.58-2.12,1.42-2.6Zm2.21,48.33c-.07-.83-.71-1.11-1.47-.64-6.03,3.67-12.12,4.64-16.71,1.98-3.05-1.76-5.04-4.89-6-8.85-.18-.75-.89-.88-1.64-.3h0c-.79.63-1.32,1.83-1.13,2.63,1.07,4.48,3.32,8.01,6.76,10,5.18,2.99,12.04,1.9,18.84-2.25.81-.49,1.43-1.67,1.36-2.56h0Zm-2-4.71c-4.89,2.85-9.79,3.55-13.51,1.4-2.44-1.41-4.07-3.86-4.9-6.98-.21-.8.3-2.04,1.12-2.68h0c.72-.57,1.43-.47,1.62.24.7,2.65,2.09,4.75,4.17,5.94,3.17,1.83,7.34,1.23,11.51-1.21.73-.43,1.35-.13,1.41.68h0c.07.92-.58,2.12-1.42,2.6Zm-3.8-15.42c-2.03-1.17-2.03-5,0-8.52,2.03-3.52,5.35-5.44,7.38-4.26s2.03,5,0,8.52c-2.03,3.52-5.35,5.44-7.38,4.26Zm-4.85,8.4c-4.71-2.72-4.71-11.56,0-19.72,4.71-8.15,12.37-12.58,17.07-9.86s4.71,11.56,0,19.72c-4.71,8.15-12.37,12.58-17.07,9.86Zm15.07-26.09c-3.6-2.08-9.46,1.3-13.06,7.54-3.6,6.24-3.6,13,0,15.08,3.6,2.08,9.46-1.3,13.06-7.54,3.6-6.24,3.6-13,0-15.08Zm-23.08,19.37c-.55-.32-1.45.2-2.01,1.16s-.55,2,0,2.32,1.45-.2,2.01-1.16c.55-.96.55-2,0-2.32Zm-6.63,3.55c-.55-.32-1.45.2-2.01,1.16s-.55,2,0,2.32,1.45-.2,2.01-1.16c.55-.96.55-2,0-2.32Z"/>
      </g>
    </g>
    <g>
      <path class="cls-2" d="m149,115.76v-14.07c0-.6.41-1.04,1.02-1.04h5.6c2.93,0,5.32,1.97,5.32,4.94s-2.4,4.95-5.32,4.95h-4.57v5.23c0,.6-.42,1.03-1.03,1.03s-1.02-.43-1.02-1.03Zm6.55-7.19c1.96,0,3.26-1.17,3.26-2.98s-1.3-2.97-3.26-2.97h-4.51v5.95h4.51Z"/>
      <path class="cls-2" d="m163.68,113.38c0-1.89,1.18-3.07,3.65-3.58l2.63-.54c1.28-.27,1.61-.55,1.61-1.35,0-1.29-1.03-2.09-2.75-2.09-1.49,0-2.63.62-3.28,1.6-.31.46-.61.72-1.04.72-.46,0-.81-.32-.81-.77s.24-.85.52-1.22c.97-1.3,2.59-2.08,4.56-2.08,3.02,0,4.7,1.45,4.7,4.04v5.69c0,.8.28,1.18.88,1.18.34,0,.57-.19.77-.49.17-.24.32-.35.56-.35.36,0,.61.3.61.71,0,.31-.11.6-.32.91-.42.62-1.08,1.07-1.93,1.07-1.23,0-2.07-.66-2.35-1.8-.82,1.13-2.23,1.81-3.88,1.81-2.53,0-4.13-1.34-4.13-3.47Zm4.5,1.7c1.91,0,3.4-1.41,3.4-3.23v-1.62c-.29.29-.8.5-1.65.67l-1.76.35c-1.75.35-2.49.96-2.49,2.02s.99,1.8,2.49,1.8Z"/>
      <path class="cls-2" d="m180.93,115.81c0,.57-.4.98-.95.98s-.97-.41-.97-.98v-10.65c0-.57.41-.98.97-.98s.95.41.95.98v.93c.63-1.2,1.86-2.01,3.41-2.01,1.02,0,1.82.31,2.3.77.35.34.55.71.55,1.12,0,.6-.36,1.01-.94,1.01-.32,0-.61-.19-.84-.42-.34-.33-.88-.62-1.57-.62-1.71,0-2.92,1.86-2.92,4.17v5.71Z"/>
      <path class="cls-2" d="m191.86,113.25v-7.07h-2.22c-.52,0-.91-.38-.91-.89s.39-.88.91-.88h2.22v-2.29c0-.57.41-.98.97-.98s.95.41.95.98v2.29h3.8c.52,0,.91.38.91.88s-.39.89-.91.89h-3.8v6.84c0,1.26.71,2,1.79,2,.7,0,1.22-.34,1.71-.76.27-.22.51-.35.8-.35.43,0,.76.34.76.8,0,.4-.24.76-.63,1.14-.63.59-1.69,1.05-2.83,1.05-1.99,0-3.52-1.33-3.52-3.63Z"/>
      <path class="cls-2" d="m208.24,110.48c0-3.8,2.66-6.41,6.4-6.41s6.4,2.61,6.4,6.41-2.66,6.41-6.4,6.41-6.4-2.61-6.4-6.41Zm6.4,4.6c2.57,0,4.41-1.85,4.41-4.6s-1.83-4.6-4.41-4.6-4.4,1.85-4.4,4.6,1.82,4.6,4.4,4.6Z"/>
      <path class="cls-2" d="m225.75,115.81v-9.62h-2.26c-.52,0-.91-.38-.91-.89s.39-.88.91-.88h2.26v-.52c0-2.2,1.41-3.57,3.6-3.57.97,0,1.83.27,2.4.67.31.22.53.55.53.88,0,.44-.31.77-.75.77-.19,0-.38-.09-.57-.2-.31-.19-.74-.42-1.49-.42-1.16,0-1.8.67-1.8,1.86v.52h3.52c.52,0,.91.38.91.88s-.39.89-.91.89h-3.52v9.62c0,.57-.39.98-.96.98s-.95-.41-.95-.98Z"/>
      <path class="cls-2" d="m242.61,115.52v-13.83c0-.6.41-1.04,1.02-1.04h9.03c.57,0,1.02.42,1.02,1.01s-.44,1.01-1.02,1.01h-8v4.86h7.08c.55,0,.99.41.99.97s-.44.96-.99.96h-7.08v5.09h8.04c.57,0,1.03.42,1.03,1.01s-.45,1.01-1.03,1.01h-9.07c-.61,0-1.02-.44-1.02-1.04Z"/>
      <path class="cls-2" d="m257.95,110.44v-8.99c0-.6.43-1.03,1.02-1.03s1.03.43,1.03,1.03v8.76c0,2.78,1.64,4.64,4.33,4.64s4.35-1.86,4.35-4.64v-8.76c0-.6.42-1.03,1.02-1.03s1.03.43,1.03,1.03v8.99c0,3.81-2.49,6.45-6.4,6.45s-6.37-2.64-6.37-6.45Z"/>
      <path class="cls-2" d="m274.3,108.62c0-4.92,3.28-8.31,8.01-8.31,2.78,0,4.84.78,6.41,2.62.5.59.7,1.18.7,1.75,0,1.15-.93,2.12-2.08,2.12-.56,0-1.26-.22-1.87-.77-.95-.86-1.85-1.31-3.09-1.31-2.12,0-3.59,1.62-3.59,3.91s1.47,3.87,3.59,3.87c1.25,0,2.14-.48,3.09-1.31.63-.55,1.33-.78,1.91-.78,1.15,0,2.05.97,2.05,2.12,0,.55-.2,1.14-.7,1.72-1.57,1.83-3.65,2.65-6.43,2.65-4.73,0-8.01-3.37-8.01-8.26Z"/>
      <path class="cls-2" d="m292.42,114.69v-12.17c0-1.26.84-2.14,2.07-2.14s2.07.88,2.07,2.14v12.17c0,1.26-.84,2.14-2.07,2.14s-2.07-.88-2.07-2.14Z"/>
      <path class="cls-2" d="m299.15,110.48c0-3.93,2.8-6.41,6.64-6.41s6.64,2.47,6.64,6.41-2.8,6.41-6.64,6.41-6.64-2.47-6.64-6.41Zm6.64,2.65c1.41,0,2.41-1.09,2.41-2.65s-.99-2.65-2.41-2.65-2.41,1.09-2.41,2.65.99,2.65,2.41,2.65Z"/>
      <path class="cls-2" d="m327.05,106.28v8.4c0,1.27-.85,2.15-2.07,2.15-.87,0-1.56-.45-1.88-1.19-.7.82-1.89,1.25-3.17,1.25-2.94,0-5.03-1.87-5.03-5.19v-5.41c0-1.25.86-2.15,2.07-2.15s2.07.93,2.07,2.15v4.84c0,1.29.73,2.04,1.93,2.04s1.94-.8,1.94-2.04v-4.84c0-1.27.85-2.15,2.07-2.15s2.07.88,2.07,2.15Z"/>
      <path class="cls-2" d="m330.59,114.69v-12.17c0-1.26.84-2.14,2.07-2.14s2.07.88,2.07,2.14v12.17c0,1.26-.84,2.14-2.07,2.14s-2.07-.88-2.07-2.14Z"/>
      <path class="cls-2" d="m337.32,110.48c0-3.87,2.55-6.41,5.87-6.41,1.27,0,2.35.36,3.13,1.04v-2.59c0-1.27.84-2.15,2.07-2.15s2.07.88,2.07,2.15v12.15c0,1.27-.84,2.15-2.07,2.15-.84,0-1.49-.41-1.82-1.08-.82.82-1.89,1.14-3.37,1.14-3.31,0-5.87-2.54-5.87-6.41Zm6.64,2.65c1.41,0,2.41-1.09,2.41-2.65s-.99-2.65-2.41-2.65-2.41,1.09-2.41,2.65.99,2.65,2.41,2.65Z"/>
      <path class="cls-2" d="m354.74,115.52v-13.83c0-.6.41-1.04,1.02-1.04h9.03c.57,0,1.02.42,1.02,1.01s-.44,1.01-1.02,1.01h-8v4.86h7.08c.55,0,.99.41.99.97s-.44.96-.99.96h-7.08v5.09h8.04c.57,0,1.03.42,1.03,1.01s-.45,1.01-1.03,1.01h-9.07c-.61,0-1.02-.44-1.02-1.04Z"/>
      <path class="cls-2" d="m369.05,110.48c0-3.81,2.55-6.41,6.01-6.41,1.89,0,3.5.78,4.47,2.26v-4.94c0-.57.4-.98.95-.98s.97.41.97.98v14.41c0,.57-.42.98-.97.98s-.95-.41-.95-.98v-1.15c-.99,1.5-2.56,2.23-4.47,2.23-3.46,0-6.01-2.6-6.01-6.41Zm6.27,4.6c2.6,0,4.28-2.07,4.28-4.6s-1.68-4.6-4.28-4.6c-2.38,0-4.28,1.71-4.28,4.6s1.9,4.6,4.28,4.6Z"/>
      <path class="cls-2" d="m385.61,116.56c0-1.05.56-1.85,1.54-2.3-.57-.41-.93-1.02-.93-1.73,0-.82.33-1.5,1.12-1.97-.65-.66-1.02-1.52-1.02-2.55,0-2.4,1.98-3.93,5.05-3.93,1.29,0,2.39.27,3.21.76l1.36-1.12c.24-.2.5-.31.74-.31.44,0,.82.38.82.81,0,.27-.14.52-.42.76l-1.23,1.05c.36.56.55,1.23.55,1.98,0,2.4-1.96,3.93-5.04,3.93-1.1,0-2.07-.2-2.84-.56-.36.23-.52.49-.52.82,0,.57.5.97,1.3.97h4.03c2.6,0,3.98,1.02,3.98,2.91,0,2.18-2.21,3.42-6.11,3.42-3.65,0-5.6-.98-5.6-2.94Zm5.68,1.25c2.65,0,4.02-.59,4.02-1.64,0-.87-.73-1.36-2.22-1.36h-4.07c-.18,0-.34-.01-.5-.03-.63.34-.94.84-.94,1.48,0,1.07,1.2,1.55,3.7,1.55Zm.1-7.5c1.9,0,3.07-.88,3.07-2.33s-1.17-2.33-3.07-2.33-3.1.88-3.1,2.33,1.19,2.33,3.1,2.33Z"/>
      <path class="cls-2" d="m400.21,110.39c0-3.83,2.42-6.32,5.99-6.32s5.88,2.41,5.88,5.82c0,.73-.4,1.12-1.06,1.12h-8.83c.18,2.46,1.85,4.07,4.41,4.07,1.48,0,2.57-.49,3.41-1.69.25-.36.56-.57.92-.57.56,0,.81.34.81.82,0,.34-.14.67-.34.99-.99,1.6-2.98,2.26-4.83,2.26-3.87,0-6.35-2.53-6.35-6.5Zm9.92-1.12c-.21-2.24-1.73-3.52-3.99-3.52s-3.77,1.34-3.94,3.52h7.93Z"/>
      <path class="cls-2" d="m415.52,114.59v-11.98c0-1.34.86-2.24,2.18-2.24s2.18.91,2.18,2.24v11.98c0,1.34-.86,2.24-2.18,2.24s-2.18-.91-2.18-2.24Z"/>
      <path class="cls-2" d="m422.85,110.48c0-3.93,2.8-6.41,6.64-6.41s6.64,2.47,6.64,6.41-2.8,6.41-6.64,6.41-6.64-2.47-6.64-6.41Zm6.64,2.65c1.41,0,2.41-1.09,2.41-2.65s-.99-2.65-2.41-2.65-2.41,1.09-2.41,2.65.99,2.65,2.41,2.65Z"/>
      <path class="cls-2" d="m442.65,114.59v-9.63h-2.78c-1.28,0-2.19-.88-2.19-2.15s.91-2.15,2.19-2.15h9.92c1.28,0,2.19.88,2.19,2.15s-.91,2.15-2.19,2.15h-2.78v9.63c0,1.34-.86,2.24-2.18,2.24s-2.18-.91-2.18-2.24Z"/>
      <path class="cls-2" d="m453.95,115.19c0-.93.73-1.6,1.61-1.6s1.62.67,1.62,1.6-.73,1.61-1.62,1.61-1.61-.68-1.61-1.61Z"/>
      <path class="cls-2" d="m459.71,110.39c0-3.83,2.42-6.32,5.99-6.32s5.88,2.41,5.88,5.82c0,.73-.4,1.12-1.06,1.12h-8.83c.18,2.46,1.85,4.07,4.41,4.07,1.48,0,2.57-.49,3.41-1.69.25-.36.56-.57.92-.57.56,0,.81.34.81.82,0,.34-.14.67-.34.99-.99,1.6-2.98,2.26-4.83,2.26-3.87,0-6.35-2.53-6.35-6.5Zm9.92-1.12c-.21-2.24-1.73-3.52-3.99-3.52s-3.77,1.34-3.94,3.52h7.93Z"/>
      <path class="cls-2" d="m486.4,105.16v10.65c0,.57-.41.98-.96.98s-.95-.41-.95-.98v-1.12c-.75,1.4-2.24,2.2-4.23,2.2-3.03,0-4.93-1.87-4.93-5.2v-6.54c0-.55.41-.97.97-.97s.95.42.95.97v6.13c0,2.62,1.29,3.81,3.37,3.81,2.41,0,3.87-1.67,3.87-4.1v-5.83c0-.57.4-.98.95-.98s.96.41.96.98Z"/>
    </g>
  </g>
</svg>